# xmcd
#
# Track frame offsets:
# 150
# 14205
# 27490
# 41720
# 51562
# 61448
# 91856
# 107331
# 131340
# 145550
# 159024
# 172588
# 180695
# 194449
# 204079
# 218168
#
# Disc length: 3013 seconds
#
# Revision: 0
# Processed by: cddbd v1.4PL0 Copyright (c) Steve Scherf et al.
# Submitted via: Audion 3.0.2 (http://www.panic.com/audion/)
#
DISCID=d30bc310
DTITLE=Son House - Heros of the Blues: The Very Best of Son House
DYEAR=1900
DGENRE=
TTITLE0=My Black Mama Part 1
TTITLE1=Walking Blues
TTITLE2=Dry Spell Blues
TTITLE3=Country Farm Blues
TTITLE4=Levee Camp Blues
TTITLE5=Walking Blues
TTITLE6=Shetland Pony Blues
TTITLE7=Delta Blues
TTITLE8=Special Rider Blues
TTITLE9=Depot Blues
TTITLE10=American Defense
TTITLE11=Am I Right or Wrong
TTITLE12=Walking Blues (Death Letter)
TTITLE13=Grinnin' In Your Face
TTITLE14=Empire State Express
TTITLE15=Jon The Revelator
EXTD=
EXTT0=
EXTT1=
EXTT2=
EXTT3=
EXTT4=
EXTT5=
EXTT6=
EXTT7=
EXTT8=
EXTT9=
EXTT10=
EXTT11=
EXTT12=
EXTT13=
EXTT14=
EXTT15=
PLAYORDER=
